<?xml version="1.0" encoding="UTF-8" standalone="no"?>
<!-- Uploaded to: SVG Repo, www.svgrepo.com, Generator: SVG Repo Mixer Tools -->

<svg
   fill="#000000"
   width="800px"
   height="800px"
   viewBox="-1.5 0 19 19"
   class="cf-icon-svg"
   version="1.1"
   id="svg4"
   sodipodi:docname="github.svg"
   inkscape:version="1.2.2 (732a01da63, 2022-12-09)"
   xmlns:inkscape="http://www.inkscape.org/namespaces/inkscape"
   xmlns:sodipodi="http://sodipodi.sourceforge.net/DTD/sodipodi-0.dtd"
   xmlns="http://www.w3.org/2000/svg"
   xmlns:svg="http://www.w3.org/2000/svg">
  <defs
     id="defs8" />
  <sodipodi:namedview
     id="namedview6"
     pagecolor="#ffffff"
     bordercolor="#000000"
     borderopacity="0.25"
     inkscape:showpageshadow="2"
     inkscape:pageopacity="0.0"
     inkscape:pagecheckerboard="0"
     inkscape:deskcolor="#d1d1d1"
     showgrid="false"
     inkscape:zoom="1.04625"
     inkscape:cx="318.27957"
     inkscape:cy="366.0693"
     inkscape:window-width="1920"
     inkscape:window-height="1017"
     inkscape:window-x="-8"
     inkscape:window-y="-8"
     inkscape:window-maximized="1"
     inkscape:current-layer="svg4" />
  <path
     d="M 17.506008,0.00889128 V 18.975508 h -6.176265 c -0.508493,0 -0.667996,-0.285087 -0.667996,-0.545017 0,-0.318627 0.012,-1.366737 0.012,-2.666395 A 2.3205967,2.3178226 0 0 0 10.01174,13.964938 c 2.168289,-0.241964 4.444512,-1.062484 4.444512,-4.7973534 A 3.7585271,3.7540341 0 0 0 13.456057,6.5598844 3.4946866,3.4905091 0 0 0 13.358916,3.9881195 c 0,0 -0.815506,-0.2611294 -2.674382,0.9966038 a 9.2152272,9.2042113 0 0 0 -4.8726539,0 C 3.9530043,3.7269901 3.1374975,3.9881195 3.1374975,3.9881195 A 3.4994838,3.4953004 0 0 0 3.0415554,6.5598844 3.7681213,3.7636168 0 0 0 2.040161,9.1675846 c 0,3.7252854 2.2714265,4.5589824 4.4325195,4.8045414 A 2.0831402,2.08065 0 0 0 5.8538548,15.270585 2.0699482,2.0674738 0 0 1 3.022367,14.46324 2.0459628,2.043517 0 0 0 1.5316686,13.461846 c 0,0 -0.95102497,-0.01198 -0.06716,0.591733 a 2.5724444,2.5693692 0 0 1 1.0793474,1.421837 c 0,0 0.5732533,1.890194 3.2800165,1.303252 0.0048,0.809739 0.011993,1.420638 0.011993,1.65302 0,0.256338 -0.1762933,0.54382 -0.663199,0.54382 H -1.4833077 V 0.00889128 Z"
     id="path2"
     style="stroke-width:1.19855" />
</svg>
